HIERARCHY
ROOT Hips
{
 OFFSET 0.000000 0.000000 0.000000
 CHANNELS 6 Xposition Yposition Zposition Yrotation Xrotation Zrotation
 JOINT Chest
 {
  OFFSET 0.000000 9.585900 0.002600
  CHANNELS 3 Yrotation Xrotation Zrotation
  JOINT Chest2
  {
   OFFSET 0.000000 9.601200 -0.005300
   CHANNELS 3 Yrotation Xrotation Zrotation
   JOINT Chest3
   {
    OFFSET 0.000000 9.561800 0.000000
    CHANNELS 3 Yrotation Xrotation Zrotation
    JOINT Chest4
    {
     OFFSET 0.000000 9.552100 0.000000
     CHANNELS 3 Yrotation Xrotation Zrotation
     JOINT Neck
     {
      OFFSET 0.000000 14.453000 0.000000
      CHANNELS 3 Yrotation Xrotation Zrotation
      JOINT Head
      {
       OFFSET 0.000000 8.936500 -0.011300
       CHANNELS 3 Yrotation Xrotation Zrotation
       End Site
       {
        OFFSET 0.000000 17.073600 -0.006000
       }
      }
     }
     JOINT RightCollar
     {
      OFFSET -2.921100 9.558500 0.000000
      CHANNELS 3 Yrotation Xrotation Zrotation
      JOINT RightShoulder
      {
       OFFSET -13.519700 0.000000 0.000000
       CHANNELS 3 Yrotation Xrotation Zrotation
       JOINT RightElbow
       {
        OFFSET 0.000000 -29.696600 0.000000
        CHANNELS 3 Yrotation Xrotation Zrotation
        JOINT RightWrist
        {
         OFFSET 0.000000 -24.004700 0.000000
         CHANNELS 3 Yrotation Xrotation Zrotation
         End Site
         {
          OFFSET 0.000000 -17.728500 0.000000
         }
        }
       }
      }
     }
     JOINT LeftCollar
     {
      OFFSET 2.921100 9.558500 0.000000
      CHANNELS 3 Yrotation Xrotation Zrotation
      JOINT LeftShoulder
      {
       OFFSET 13.519700 0.000000 0.000000
       CHANNELS 3 Yrotation Xrotation Zrotation
       JOINT LeftElbow
       {
        OFFSET 0.000000 -29.696600 0.000000
        CHANNELS 3 Yrotation Xrotation Zrotation
        JOINT LeftWrist
        {
         OFFSET 0.000000 -24.004700 0.000000
         CHANNELS 3 Yrotation Xrotation Zrotation
         End Site
         {
          OFFSET 0.000000 -17.728500 0.000000
         }
        }
       }
      }
     }
    }
   }
  }
 }
 JOINT RightHip
 {
  OFFSET -7.771700 -0.012900 -0.001300
  CHANNELS 3 Yrotation Xrotation Zrotation
  JOINT RightKnee
  {
   OFFSET 0.000000 -40.869800 0.001200
   CHANNELS 3 Yrotation Xrotation Zrotation
   JOINT RightAnkle
   {
    OFFSET 0.000000 -39.717900 0.002100
    CHANNELS 3 Yrotation Xrotation Zrotation
    JOINT RightToe
    {
     OFFSET 0.000000 -4.965400 11.033500
     CHANNELS 3 Yrotation Xrotation Zrotation
     End Site
     {
      OFFSET 0.000000 -1.423100 5.872300
     }
    }
   }
  }
 }
 JOINT LeftHip
 {
  OFFSET 7.771700 -0.012900 -0.001300
  CHANNELS 3 Yrotation Xrotation Zrotation
  JOINT LeftKnee
  {
   OFFSET 0.000000 -40.869800 0.001200
   CHANNELS 3 Yrotation Xrotation Zrotation
   JOINT LeftAnkle
   {
    OFFSET 0.000000 -39.717900 0.002100
    CHANNELS 3 Yrotation Xrotation Zrotation
    JOINT LeftToe
    {
     OFFSET 0.000000 -4.965400 11.033500
     CHANNELS 3 Yrotation Xrotation Zrotation
     End Site
     {
      OFFSET 0.000000 -1.423100 5.872300
     }
    }
   }
  }
 }
}
MOTION
Frames: 16
Frame Time: 0.008333
0.000000 85.388000 0.000000 0.000000 -5.767877 0.000000 0.000000 11.653817 0.000000 0.000000 -5.885947 0.000000 0.000000 -0.000000 0.000000 0.000000 -0.000000 0.000000 0.000000 12.528835 0.000000 0.000000 0.711642 0.000000 0.000000 -0.000000 0.000000 0.000000 0.000000 -90.000000 0.000000 -2.309062 0.000000 0.000000 2.309062 0.000000 0.000000 -0.000000 0.000000 0.000000 -0.000000 90.000000 0.000000 -2.309062 0.000000 0.000000 2.309062 0.000000 0.000000 8.520406 0.000000 0.000000 1.905762 0.000000 -0.000000 -4.658285 0.000000 0.000000 -0.000000 0.000000 0.000000 8.520406 0.000000 0.000000 1.905762 0.000000 -0.000000 -4.658285 0.000000 0.000000 -0.000000 0.000000
-16.751468 56.963844 85.874923 172.720631 -33.813316 0.096965 7.387293 18.139881 4.763664 0.819423 2.278661 0.287744 1.330176 3.739238 0.537838 6.088830 15.882240 2.898541 -2.263481 15.587164 -4.374133 -2.630147 -6.854922 -7.331672 2.184051 -1.369390 -0.708687 11.851156 -16.631943 -18.189986 -60.703759 -82.113658 102.276858 5.906386 -17.266662 -50.643684 -6.608210 -1.775518 -1.907596 6.256054 -7.032455 -5.259067 48.052460 -30.428601 -74.946725 11.387281 -16.475852 28.295559 17.242594 -38.491460 -5.240478 -6.316536 67.406323 -4.744207 7.285755 4.943779 9.815745 -0.047998 0.148340 -0.038964 -7.443029 -44.278914 8.275491 28.101518 65.893033 26.585653 -12.913667 29.266493 -0.887849 0.029037 -14.802897 -5.995180
-16.757781 56.964724 85.873550 172.707193 -33.810481 0.125483 7.355686 18.142992 4.794923 0.805884 2.277814 0.310065 1.331801 3.740967 0.526834 6.064447 15.885072 2.927738 -2.205413 15.542151 -4.668616 -2.413292 -6.929715 -7.902602 2.174487 -1.317934 -0.714423 11.765021 -16.727513 -18.116641 -61.460821 -82.306134 102.860087 5.979093 -17.346266 -50.796403 -6.578605 -1.719728 -1.908268 6.315181 -7.054389 -5.330202 48.130370 -30.537524 -75.053065 11.408417 -16.358597 28.282022 17.261350 -38.491012 -5.268698 -6.298930 67.412888 -4.732639 7.283752 4.941518 9.816384 -0.049126 0.144741 -0.033808 -7.401254 -44.278609 8.235123 28.095212 65.889869 26.578682 -12.897721 29.247760 -0.871569 0.012782 -14.768238 -5.993763
-16.757522 56.966177 85.872282 172.680567 -33.812005 0.111102 7.370393 18.143133 4.852268 0.787206 2.279954 0.347499 1.325105 3.741509 0.534004 6.039397 15.888534 2.956410 -2.143420 15.500300 -4.961517 -2.189467 -6.996816 -8.472405 2.165355 -1.269999 -0.719694 11.682455 -16.829873 -18.038010 -62.321893 -82.512157 103.521771 6.053979 -17.427346 -50.943134 -6.545327 -1.664897 -1.907491 6.373999 -7.075318 -5.399982 48.214416 -30.641247 -75.175048 11.458310 -16.195472 28.207919 17.249595 -38.494861 -5.226923 -6.300475 67.401854 -4.737513 7.288141 4.952228 9.814127 -0.049397 0.140388 -0.031767 -7.400278 -44.269901 8.267999 28.118284 65.883984 26.593928 -12.841522 29.253357 -0.827918 -0.039835 -14.769898 -5.995467
-16.782714 56.966802 85.869179 172.677539 -33.803228 0.222970 7.295864 18.157712 4.805836 0.798209 2.278439 0.318326 1.311422 3.742994 0.558964 6.033008 15.892759 2.927743 -2.078289 15.464405 -5.187822 -1.958885 -7.052398 -9.039216 2.137618 -1.226803 -0.666300 11.607937 -16.941906 -17.951619 -63.291742 -82.757659 104.263437 6.138995 -17.505182 -51.086451 -6.529666 -1.602924 -1.845309 6.429292 -7.093554 -5.466081 48.304911 -30.728051 -75.307558 11.552300 -15.981811 28.022550 17.327621 -38.484753 -5.378069 -6.273839 67.437887 -4.729002 7.292396 4.929634 9.825018 -0.045144 0.140324 -0.029442 -7.105839 -44.293064 7.951478 28.061927 65.846565 26.668202 -12.848930 29.206454 -0.832580 -0.045373 -14.718112 -5.984083
-16.802645 56.967993 85.865915 172.643627 -33.800363 0.308251 7.269172 18.171734 4.793043 0.819016 2.275011 0.269189 1.283622 3.746790 0.619987 5.997570 15.896863 2.983915 -2.006942 15.434141 -5.506784 -1.721211 -7.093844 -9.600328 2.138490 -1.179178 -0.707059 11.548440 -17.063617 -17.860238 -64.398604 -83.065411 105.115675 6.246518 -17.582972 -51.235979 -6.482831 -1.547690 -1.875260 6.464436 -7.130619 -5.564342 48.396052 -30.810376 -75.396909 11.662330 -15.695161 27.681278 17.398116 -38.478199 -5.469553 -6.258259 67.459603 -4.725979 7.289073 4.922751 9.834125 -0.036598 0.137413 -0.029128 -6.804194 -44.310282 7.670229 27.990564 65.811603 26.752460 -12.808149 29.196421 -0.798168 -0.061651 -14.690781 -6.002767
-16.812338 56.971012 85.861085 172.620603 -33.818373 0.317798 7.281965 18.191290 4.812875 0.793524 2.278993 0.322947 1.275950 3.749641 0.627180 5.960527 15.903217 3.038425 -1.929941 15.411219 -5.819871 -1.475111 -7.119311 -10.154198 2.139794 -1.134501 -0.746908 11.509545 -17.196129 -17.767661 -65.698876 -83.448025 106.140304 6.387030 -17.664684 -51.401226 -6.433050 -1.492451 -1.903676 6.521012 -7.136566 -5.606578 48.493500 -30.867212 -75.550920 11.787990 -15.337500 27.188256 17.404691 -38.458955 -5.462118 -6.254790 67.458657 -4.725520 7.291535 4.924462 9.835113 -0.031421 0.134514 -0.026118 -6.589361 -44.302408 7.494222 27.959487 65.781561 26.857751 -12.689735 29.204441 -0.695462 -0.163884 -14.696844 -6.034240
-16.834263 56.971985 85.857862 172.608177 -33.814599 0.387307 7.239482 18.204133 4.803484 0.789171 2.280052 0.327349 1.267464 3.755998 0.632947 5.929223 15.912460 3.062981 -1.846541 15.396799 -6.095139 -1.219013 -7.127983 -10.698936 2.142783 -1.098764 -0.760423 11.484627 -17.338730 -17.673551 -67.321569 -83.911058 107.470146 6.555320 -17.748783 -51.575372 -6.389740 -1.439660 -1.901684 6.574341 -7.140303 -5.636144 48.583990 -30.940988 -75.708818 11.940396 -14.927943 26.583528 17.463014 -38.450279 -5.556301 -6.226375 67.478498 -4.706467 7.300247 4.910858 9.845584 -0.028856 0.134413 -0.023207 -6.327475 -44.326199 7.240259 27.944727 65.755002 26.950846 -12.583400 29.207033 -0.592569 -0.253455 -14.689811 -6.048769
-16.854082 56.972484 85.855762 172.598151 -33.805253 0.443018 7.168473 18.230469 4.862261 0.811340 2.265347 0.265156 1.261366 3.768391 0.638932 5.895853 15.924286 3.085488 -1.756904 15.390572 -6.362930 -0.954853 -7.119537 -11.231722 2.157136 -1.075486 -0.779844 11.470631 -17.489870 -17.576691 -69.402434 -84.452161 109.247269 6.747321 -17.835010 -51.746345 -6.347274 -1.398120 -1.897008 6.615597 -7.155597 -5.671038 48.650640 -31.040174 -75.836726 12.105203 -14.484239 25.925279 17.508024 -38.449832 -5.634581 -6.190049 67.494604 -4.680856 7.310526 4.900465 9.856319 -0.037170 0.134317 -0.021415 -6.095863 -44.355818 7.021904 27.921762 65.731894 27.036880 -12.545812 29.221407 -0.534762 -0.281243 -14.691073 -6.065887
-16.868188 56.972958 85.854794 172.599280 -33.793054 0.465451 7.138559 18.237082 4.879554 0.797760 2.269706 0.285032 1.254648 3.776128 0.644873 5.861945 15.937436 3.107581 -1.661919 15.393848 -6.623334 -0.684358 -7.091730 -11.752081 2.190119 -1.078555 -0.851382 11.446222 -17.644710 -17.430152 -72.129121 -85.057699 111.670381 6.973646 -17.921194 -51.914930 -6.307195 -1.366262 -1.890572 6.649119 -7.176391 -5.693066 48.690339 -31.146800 -75.941016 12.251484 -14.030702 25.268034 17.522502 -38.458298 -5.675315 -6.177163 67.503013 -4.671622 7.313320 4.903563 9.860640 -0.029521 0.129208 -0.021909 -5.912985 -44.386004 6.867225 27.878330 65.718222 27.091922 -12.540302 29.231922 -0.503210 -0.285860 -14.694978 -6.072946
-16.875914 56.973951 85.854615 172.605719 -33.780189 0.460278 7.126629 18.229663 4.894013 0.774436 2.286727 0.338601 1.242576 3.782292 0.649950 5.826620 15.951847 3.130467 -1.560954 15.406865 -6.877425 -0.406009 -7.044033 -12.262198 2.227608 -1.085179 -0.925962 11.444061 -17.816474 -17.297156 -75.897341 -85.711698 115.149116 7.243164 -18.006069 -52.088371 -6.267795 -1.341797 -1.887987 6.669832 -7.206645 -5.699075 48.707989 -31.256644 -76.015870 12.365906 -13.595072 24.661348 17.514589 -38.471200 -5.683734 -6.157372 67.503707 -4.648233 7.308931 4.912963 9.855260 -0.012366 0.124078 -0.021281 -5.766967 -44.409644 6.770622 27.772246 65.716532 27.083980 -12.562011 29.223003 -0.532532 -0.262593 -14.681369 -6.045748
-16.882311 56.975615 85.854862 172.619928 -33.763795 0.460797 7.056073 18.256479 4.978564 0.791911 2.274008 0.293402 1.232741 3.789169 0.657523 5.788832 15.968027 3.153656 -1.452863 15.427547 -7.126074 -0.117380 -6.980104 -12.764156 2.242507 -1.071453 -0.881341 11.528758 -18.009100 -17.314376 -81.397876 -86.400407 120.391957 7.560444 -18.093762 -52.282851 -6.228150 -1.325428 -1.890836 6.674822 -7.246477 -5.688689 48.706154 -31.370688 -76.057741 12.437758 -13.194653 24.158265 17.511232 -38.484269 -5.705070 -6.136141 67.504510 -4.628893 7.328990 4.919109 9.849623 -0.026769 0.116174 -0.012613 -5.625694 -44.427747 6.687045 27.713650 65.699662 27.084900 -12.601554 29.193747 -0.552694 -0.254621 -14.644704 -5.999579
-16.887372 56.981054 85.851265 172.607306 -33.773297 0.491723 7.017159 18.300143 5.023951 0.796304 2.271598 0.279545 1.232128 3.789262 0.645928 5.745040 15.990812 3.198730 -1.337107 15.454588 -7.369020 0.182295 -6.902232 -13.257527 2.276535 -1.087902 -0.891083 11.603450 -18.209965 -17.298078 -89.975581 -87.097558 128.757716 7.930484 -18.188092 -52.509425 -6.189123 -1.316600 -1.897514 6.660662 -7.294969 -5.664161 48.678936 -31.495984 -76.055156 12.459529 -12.839762 23.805898 17.529363 -38.469564 -5.726085 -6.118391 67.510740 -4.618084 7.326933 4.924295 9.841601 -0.027085 0.106746 -0.005275 -5.456868 -44.412658 6.603054 27.818806 65.656159 27.198120 -12.703800 29.157017 -0.504546 -0.251188 -14.609933 -5.990508
-16.896263 56.986185 85.849657 172.611840 -33.762432 0.554827 6.957656 18.323520 5.009064 0.790592 2.275530 0.284527 1.254286 3.772422 0.592609 5.696851 16.028168 3.287618 -1.216481 15.487675 -7.604820 0.487155 -6.811491 -13.738624 2.313115 -1.121204 -0.926278 11.699239 -18.429757 -17.288258 -104.340018 -87.733863 142.959970 8.351959 -18.289874 -52.750418 -6.156987 -1.315979 -1.904883 6.621719 -7.350008 -5.628388 48.618134 -31.644008 -75.999181 12.437750 -12.539165 23.628312 17.568621 -38.466016 -5.805332 -6.108185 67.526600 -4.622179 7.330267 4.917746 9.841255 -0.033994 0.105561 -0.001130 -5.279488 -44.412302 6.477545 27.757085 65.632965 27.168703 -12.859349 29.088830 -0.583436 -0.159644 -14.541724 -5.936093
-16.893845 56.993403 85.848237 172.600409 -33.757481 0.578449 6.930841 18.349879 5.045180 0.756722 2.299199 0.341866 1.265511 3.755683 0.546025 5.672275 16.057304 3.310673 -1.094066 15.525529 -7.833143 0.791522 -6.710744 -14.205769 2.345043 -1.165881 -0.981875 11.830980 -18.677125 -17.301339 -127.993182 -88.154910 166.506570 8.827014 -18.393282 -52.987552 -6.139244 -1.324755 -1.909462 6.557762 -7.410289 -5.584613 48.518242 -31.814101 -75.884195 12.383892 -12.300996 23.620359 17.582102 -38.463570 -5.813606 -6.127413 67.522982 -4.648987 7.337844 4.922261 9.833900 -0.028194 0.104870 0.003398 -5.156826 -44.392781 6.432533 27.660055 65.613098 27.096673 -12.914853 29.022553 -0.652756 -0.115665 -14.472130 -5.865588
-16.889946 57.003424 85.844610 172.584703 -33.767743 0.613415 6.904699 18.395612 5.074835 0.745163 2.313364 0.363158 1.268543 3.755372 0.533418 5.638618 16.080740 3.336761 -0.968533 15.567224 -8.055839 1.098715 -6.601379 -14.662752 2.385567 -1.215101 -1.084485 11.987784 -18.966797 -17.320558 -157.800523 -88.153359 -163.717668 9.358259 -18.486924 -53.222764 -6.132366 -1.341439 -1.911385 6.470757 -7.478209 -5.533559 48.378203 -31.988110 -75.709373 12.311132 -12.132266 23.756273 17.596435 -38.442546 -5.821430 -6.141394 67.520702 -4.674628 7.339613 4.922690 9.827460 -0.029039 0.108390 0.000962 -5.049818 -44.356381 6.396258 27.650871 65.580463 27.072967 -12.991700 28.980673 -0.644258 -0.073066 -14.427584 -5.855462
